<?xml version="1.0" encoding="iso-8859-1"?>
<!-- Generator: Adobe Illustrator 19.1.0, SVG Export Plug-In . SVG Version: 6.00 Build 0)  -->
<svg version="1.1" id="Capa_1" xmlns="http://www.w3.org/2000/svg" xmlns:xlink="http://www.w3.org/1999/xlink" x="0px" y="0px"
	 viewBox="0 0 63.48 63.48" style="enable-background:new 0 0 63.48 63.48;" xml:space="preserve">
<g>
	<g id="group-90svg">
		<path id="path-1_140_" style="fill:#8B71B5;" d="M59.24,63.48l-24.5-16.841L10.24,63.48V7.691C10.24,5.366,12.313,3,14.638,3h40
			c2.326,0,4.602,2.366,4.602,4.691V63.48z"/>
		<path id="path-2_140_" d="M53.74,62.98c-0.303,0-0.605-0.091-0.861-0.272L29.74,46.471L6.601,62.708
			c-0.456,0.322-1.056,0.362-1.553,0.104C4.551,62.553,4.24,62.04,4.24,61.48V5.691C4.24,2.446,6.561,0,9.638,0h40
			c3.141,0,5.602,2.5,5.602,5.691V61.48c0,0.56-0.312,1.073-0.808,1.332C54.215,62.925,53.976,62.98,53.74,62.98z M29.74,43.139
			c0.302,0,0.603,0.09,0.861,0.272L52.24,58.596V5.691C52.24,4.157,51.122,3,49.638,3h-40C7.991,3,7.24,4.396,7.24,5.691v52.905
			l21.639-15.185C29.136,43.229,29.438,43.139,29.74,43.139z"/>
		<path id="path-3_139_" d="M52.24,12h-46c-0.828,0-1.5-0.672-1.5-1.5S5.412,9,6.24,9h46c0.828,0,1.5,0.672,1.5,1.5
			S53.068,12,52.24,12z"/>
		<path id="path-4_137_" style="fill:#FFFFFF;" d="M43.323,30.621c0.501,0.361,0.501,1.104,0,1.466
			c-2.309,1.662-8.121,5.577-11.653,5.577c-3.533,0-9.344-3.915-11.653-5.577c-0.502-0.362-0.502-1.105,0-1.466
			c2.309-1.662,8.12-5.577,11.653-5.577C35.202,25.044,41.014,28.959,43.323,30.621z"/>
		<path id="path-5_123_" d="M29.67,38.164c-3.82,0-9.49-3.671-12.529-5.859c-0.627-0.452-1.001-1.181-1.001-1.951
			s0.374-1.5,1.001-1.951c3.039-2.188,8.709-5.859,12.529-5.859s9.49,3.671,12.529,5.859c0.627,0.452,1,1.181,1,1.951
			s-0.373,1.498-0.998,1.95C39.16,34.493,33.49,38.164,29.67,38.164z M19.577,30.354c4.264,2.981,8.088,4.81,10.093,4.81
			c2.004,0,5.83-1.829,10.093-4.811c-4.263-2.979-8.089-4.809-10.093-4.809C27.665,25.544,23.841,27.373,19.577,30.354z"/>
		<path id="path-6_99_" d="M29.67,36.135c-3.188,0-5.781-2.593-5.781-5.781c0-3.187,2.593-5.781,5.781-5.781
			c3.187,0,5.781,2.594,5.781,5.781C35.451,33.542,32.857,36.135,29.67,36.135z M29.67,27.573c-1.534,0-2.781,1.248-2.781,2.781
			c0,1.534,1.247,2.781,2.781,2.781c1.533,0,2.781-1.247,2.781-2.781C32.451,28.821,31.203,27.573,29.67,27.573z"/>
		<path id="path-7_60_" d="M30.655,28.706c0,1.204-0.977,2.181-2.181,2.181c-1.204,0-2.18-0.977-2.18-2.181
			c0-1.204,0.976-2.181,2.18-2.181C29.678,26.525,30.655,27.502,30.655,28.706z"/>
	</g>
</g>
<g>
</g>
<g>
</g>
<g>
</g>
<g>
</g>
<g>
</g>
<g>
</g>
<g>
</g>
<g>
</g>
<g>
</g>
<g>
</g>
<g>
</g>
<g>
</g>
<g>
</g>
<g>
</g>
<g>
</g>
</svg>
